<?xml version="1.0" ?><!DOCTYPE svg  PUBLIC '-//W3C//DTD SVG 1.1//EN'  'http://www.w3.org/Graphics/SVG/1.1/DTD/svg11.dtd'><svg height="1.70667in" style="shape-rendering:geometricPrecision; text-rendering:geometricPrecision; image-rendering:optimizeQuality; fill-rule:evenodd; clip-rule:evenodd" version="1.1" viewBox="0 0 10426 10426" width="1.70667in" xml:space="preserve" xmlns="http://www.w3.org/2000/svg" xmlns:xlink="http://www.w3.org/1999/xlink"><defs><style type="text/css">
   <![CDATA[
    .fil0 {fill:none}
    .fil1 {fill:white;fill-rule:nonzero}
   ]]>
  </style></defs><g id="Layer_x0020_1"><rect class="fil0" height="10426" width="10426"/><path class="fil1" d="M5247 7758c-15,0 -30,-1 -41,-1 -8,0 -18,1 -27,1 -323,0 -539,-153 -729,-288 -136,-96 -265,-187 -416,-212 -74,-12 -148,-19 -219,-19 -128,0 -230,20 -303,35 -46,8 -85,16 -116,16 -32,0 -70,-7 -86,-62 -13,-43 -22,-85 -31,-126 -22,-101 -38,-162 -76,-168 -405,-63 -644,-155 -691,-266 -5,-11 -8,-23 -9,-35 -2,-34 22,-63 54,-68 322,-53 608,-223 850,-505 188,-219 280,-428 290,-451l1 -3c47,-95 56,-176 28,-243 -52,-123 -225,-178 -339,-214 -29,-9 -55,-18 -77,-26 -101,-40 -268,-125 -246,-242 16,-85 129,-144 220,-144 25,0 48,5 67,13 102,49 195,73 274,73 99,0 147,-38 159,-48 -4,-55 -7,-109 -10,-162 -23,-370 -52,-829 65,-1093 352,-789 1098,-850 1318,-850 37,-1 73,-1 110,-1 220,0 968,61 1320,851 118,263 89,723 66,1093l-1 18c-4,50 -7,97 -9,144 11,10 55,44 143,48 76,-3 163,-28 259,-73 30,-13 63,-16 85,-16 34,0 68,6 97,18l1 1c82,29 135,86 136,147 1,57 -41,141 -248,223 -21,8 -48,17 -76,26 -115,36 -287,91 -339,214 -29,67 -19,148 27,243l2 3c14,34 362,828 1139,956 33,5 56,34 54,68 0,12 -3,24 -8,35 -47,111 -287,203 -692,265 -38,6 -54,68 -75,168 -10,42 -19,82 -32,125 -11,40 -37,60 -79,60l-6 0c-28,0 -67,-5 -116,-14 -86,-17 -182,-33 -303,-33 -72,0 -145,7 -220,19 -150,25 -279,116 -415,212 -191,135 -407,288 -730,288z"/></g></svg>
